HIERARCHY
ROOT Pelvis
{
	OFFSET 0.000000 0.000000 0.000000
	CHANNELS 6 Xposition Yposition Zposition Xrotation Yrotation Zrotation
	JOINT LeftUpLeg_virtual
	{
		OFFSET 0.000000 0.000000 0.000000
		CHANNELS 3 Xrotation Yrotation Zrotation
		JOINT LeftUpLeg
		{
			OFFSET 18.735201 -5.666702 -4.541200
			CHANNELS 3 Xrotation Yrotation Zrotation
			JOINT LeftLeg
			{
				OFFSET -0.021200 -31.938179 0.493100
				CHANNELS 3 Xrotation Yrotation Zrotation
				JOINT LeftFoot
				{
					OFFSET 0.021200 -31.938179 -4.336299
					CHANNELS 3 Xrotation Yrotation Zrotation
					JOINT LeftToeBase
					{
						OFFSET 0.943001 -26.722000 15.023500
						CHANNELS 3 Xrotation Yrotation Zrotation
						End Site
						{
							OFFSET 0 0 0
						}
					}
				}
			}
		}
	}
	JOINT RightUpLeg_virtual
	{
		OFFSET 0.000000 0.000000 0.000000
		CHANNELS 3 Xrotation Yrotation Zrotation
		JOINT RightUpLeg
		{
			OFFSET -18.735201 -5.666702 -4.541200
			CHANNELS 3 Xrotation Yrotation Zrotation
			JOINT RightLeg
			{
				OFFSET 0.018946 -31.938133 0.493100
				CHANNELS 3 Xrotation Yrotation Zrotation
				JOINT RightFoot
				{
					OFFSET -0.018946 -31.938126 -4.336299
					CHANNELS 3 Xrotation Yrotation Zrotation
					JOINT RightToeBase
					{
						OFFSET -0.943001 -26.722004 15.023500
						CHANNELS 3 Xrotation Yrotation Zrotation
						End Site
						{
							OFFSET 0 0 0
						}
					}
				}
			}
		}
	}
	JOINT Hips_virtual
	{
		OFFSET 0.000000 0.000000 0.000000
		CHANNELS 3 Xrotation Yrotation Zrotation
		JOINT Hips
		{
			OFFSET -0.000000 -0.000000 -0.000000
			CHANNELS 3 Xrotation Yrotation Zrotation
			JOINT Spine
			{
				OFFSET 0.000000 10.199997 -0.299500
				CHANNELS 3 Xrotation Yrotation Zrotation
				JOINT Spine1
				{
					OFFSET 0.000000 11.900002 -1.516600
					CHANNELS 3 Xrotation Yrotation Zrotation
					JOINT Spine2
					{
						OFFSET 0.000000 13.600006 -2.842500
						CHANNELS 3 Xrotation Yrotation Zrotation
						JOINT Neck_virtual
						{
							OFFSET 0.000000 0.000000 0.000000
							CHANNELS 3 Xrotation Yrotation Zrotation
							JOINT Neck
							{
								OFFSET 0.000000 9.624100 -2.890100
								CHANNELS 3 Xrotation Yrotation Zrotation
								JOINT Head
								{
									OFFSET 0.000000 14.068802 -1.351900
									CHANNELS 3 Xrotation Yrotation Zrotation
									End Site
									{
										OFFSET 0 0 0
									}
								}
							}
						}
						JOINT LeftShoulder_virtual
						{
							OFFSET 0.000000 0.000000 0.000000
							CHANNELS 3 Xrotation Yrotation Zrotation
							JOINT LeftShoulder
							{
								OFFSET 15.263000 10.923401 -0.547700
								CHANNELS 3 Xrotation Yrotation Zrotation
								JOINT LeftArm
								{
									OFFSET 25.438599 -2.830597 -13.032500
									CHANNELS 3 Xrotation Yrotation Zrotation
									JOINT LeftForeArm
									{
										OFFSET 29.960503 0.000000 0.000000
										CHANNELS 3 Xrotation Yrotation Zrotation
										JOINT LeftHand
										{
											OFFSET 27.849251 0.000000 0.000000
											CHANNELS 3 Xrotation Yrotation Zrotation
											End Site
											{
												OFFSET 0 0 0
											}
										}
									}
								}
							}
						}
						JOINT RightShoulder_virtual
						{
							OFFSET 0.000000 0.000000 0.000000
							CHANNELS 3 Xrotation Yrotation Zrotation
							JOINT RightShoulder
							{
								OFFSET -15.263000 10.923401 -0.547700
								CHANNELS 3 Xrotation Yrotation Zrotation
								JOINT RightArm
								{
									OFFSET -25.438599 -2.830597 -13.032500
									CHANNELS 3 Xrotation Yrotation Zrotation
									JOINT RightForeArm
									{
										OFFSET -29.960503 0.000000 0.000000
										CHANNELS 3 Xrotation Yrotation Zrotation
										JOINT RightHand
										{
											OFFSET -27.849251 0.000000 0.000000
											CHANNELS 3 Xrotation Yrotation Zrotation
											End Site
											{
												OFFSET 0 0 0
											}
										}
									}
								}
							}
						}
					}
				}
			}
		}
	}
}
MOTION
Frames: 12
Frame Time: 0.03333333
6.722537 83.889519 -9.383278 0.000000 0.000000 0.000000 13.989149 4.334061 -0.301562 -9.134272 13.385941 11.408321 36.402367 0.686037 4.913114 -6.087885 -1.323740 -8.603626 0.000000 0.000000 0.000000 13.295650 4.540768 -2.321263 -50.101873 -4.941911 -8.239247 51.637699 -2.638478 1.932529 -17.915397 4.428006 -1.713072 0.000000 0.000000 0.000000 13.046180 4.749838 -1.557291 -1.064986 -0.281165 -1.027602 3.418851 -2.972896 3.582605 1.724020 -3.305109 2.844923 0.000000 0.000000 0.000000 1.428862 -3.325213 2.622887 -0.726443 0.292507 0.915378 0.000000 0.000000 0.000000 1.424730 -3.477994 2.010706 0.098267 -0.319340 2.544194 -29.349237 -17.383060 -41.660592 177.575602 -62.280930 178.067048 0.000000 0.000000 0.000000 1.332970 -3.077539 3.128650 -3.399231 -11.384586 4.763206 -43.912703 2.841548 60.564489 178.045984 60.019195 -175.312870 0.000000 0.000000 0.000000 
6.532115 85.234642 -11.225647 0.000000 0.000000 0.000000 14.522118 5.796875 -1.854275 -22.914786 11.596171 15.501044 51.399178 0.620051 5.636351 10.823336 -3.159492 -5.098927 0.000000 0.000000 0.000000 14.670270 6.066304 -3.421232 -47.572312 -4.434488 -6.292995 51.473603 -1.835944 1.641841 -16.768301 6.464330 0.112883 0.000000 0.000000 0.000000 14.322254 5.707112 -2.415271 -1.596008 0.482619 -0.830783 6.133165 -2.658200 3.918424 1.646139 -3.096327 2.083855 0.000000 0.000000 0.000000 1.289400 -3.238766 1.936857 -0.924112 0.226671 0.545595 0.000000 0.000000 0.000000 0.936879 -3.426703 1.206520 0.529816 -2.346861 11.952984 -45.518843 -14.136995 -39.318500 177.944227 -69.125503 178.599529 0.000000 0.000000 0.000000 1.909032 -3.030442 2.073397 -3.975844 -11.895311 -3.777268 -58.650261 -1.460557 59.360402 175.012642 64.097951 -173.719714 0.000000 0.000000 0.000000 
6.358330 86.252754 -12.935074 0.000000 0.000000 0.000000 14.991791 6.697671 -2.326586 -38.000099 10.064801 19.110374 68.630574 1.045332 5.420457 24.070174 -2.147808 0.015048 0.000000 0.000000 0.000000 15.391401 6.779406 -3.175696 -47.602266 -3.677478 -4.915208 55.999324 -1.487641 2.253378 -17.586277 7.028153 0.132505 0.000000 0.000000 0.000000 15.370731 6.061667 -1.994109 -1.585823 0.701442 -0.501175 8.641607 -2.029102 2.860132 1.744268 -2.840568 1.265618 0.000000 0.000000 0.000000 1.259404 -3.101552 1.144337 -1.424218 0.193959 0.219408 0.000000 0.000000 0.000000 0.855528 -3.281469 0.494645 0.816975 -3.271636 20.914232 -58.567465 -12.067650 -34.339811 178.919770 -78.124844 -179.760907 0.000000 0.000000 0.000000 2.790100 -2.971868 0.909517 -4.553720 -12.370401 -12.538041 -68.717604 -6.281016 52.651135 172.909681 70.526785 -172.710554 0.000000 0.000000 0.000000 
6.163782 87.167534 -14.234161 0.000000 0.000000 0.000000 15.278160 6.525544 -1.834412 -51.693443 9.314549 21.851773 83.092871 1.181965 3.908926 28.642745 0.549937 5.115796 0.000000 0.000000 0.000000 15.474270 6.570823 -1.978194 -48.386559 -3.384406 -4.131879 60.309088 -2.316917 3.483178 -19.659958 5.823565 -1.441436 0.000000 0.000000 0.000000 16.237979 5.463126 -0.697618 -1.239635 0.728353 -0.899512 10.526338 -1.255215 0.496475 2.132025 -2.573598 0.684261 0.000000 0.000000 0.000000 1.390983 -2.865503 0.588944 -2.124079 0.210326 -0.027628 0.000000 0.000000 0.000000 1.246157 -2.998669 0.112629 0.671969 -3.263890 26.505290 -65.524969 -10.764218 -28.832404 -178.773672 -83.561934 -176.629539 0.000000 0.000000 0.000000 3.592953 -2.766648 0.055976 -4.772688 -12.431533 -19.053142 -73.432033 -9.403086 44.513244 172.539827 77.199606 -173.259155 0.000000 0.000000 0.000000 
6.007805 88.223427 -14.913052 0.000000 0.000000 0.000000 15.741306 4.629499 -0.827870 -61.098856 9.352032 22.617202 90.210721 0.920479 2.105657 24.174558 2.944083 9.731993 0.000000 0.000000 0.000000 15.732526 5.034878 -0.704086 -47.246556 -3.585848 -3.408884 60.228499 -3.763646 4.380404 -22.178090 4.194431 -2.896952 0.000000 0.000000 0.000000 16.876957 3.729861 0.813597 -0.913444 0.415454 -1.403073 11.505179 -0.368017 -2.518677 2.657248 -2.235154 0.580386 0.000000 0.000000 0.000000 1.825756 -2.448829 0.447307 -2.877326 0.282184 -0.158499 0.000000 0.000000 0.000000 1.888342 -2.543191 0.179911 0.062477 -2.569537 27.181457 -64.311586 -9.179110 -24.845392 -179.599865 -82.048358 -176.968357 0.000000 0.000000 0.000000 3.966448 -2.352292 -0.110997 -4.506924 -12.161393 -21.922623 -72.166317 -10.573811 39.851948 174.872650 81.293308 -176.175973 0.000000 0.000000 0.000000 
5.917423 89.343163 -14.733494 0.000000 0.000000 0.000000 16.631495 1.669891 -0.026039 -64.510338 10.315773 21.031930 88.850092 0.462106 0.930010 14.490834 4.037938 13.485097 0.000000 0.000000 0.000000 16.383959 2.097347 -0.043828 -43.043330 -3.622696 -2.389553 54.913293 -5.028193 4.243287 -23.391286 3.155777 -2.430946 0.000000 0.000000 0.000000 17.331672 1.262583 1.643685 -0.273289 -0.046497 -1.449333 11.406503 0.559224 -5.331264 3.227090 -1.803126 0.905436 0.000000 0.000000 0.000000 2.499192 -1.849081 0.730924 -3.519335 0.401512 -0.125322 0.000000 0.000000 0.000000 2.609196 -1.897168 0.628468 -0.859095 -1.186446 22.826110 -55.732370 -6.211666 -23.918279 177.741343 -75.671720 -179.597379 0.000000 0.000000 0.000000 3.912284 -1.712903 0.372996 -3.704730 -11.346812 -20.098066 -65.278625 -9.516980 40.137579 177.421226 81.625883 -178.938006 0.000000 0.000000 0.000000 
5.712646 90.043434 -13.928059 0.000000 0.000000 0.000000 17.594730 -1.523382 -0.027522 -62.485105 11.683615 17.589784 80.299454 -0.138583 0.589785 4.707526 3.709813 14.961733 0.000000 0.000000 0.000000 17.224530 -0.628798 -0.255702 -36.185369 -3.375777 -1.216909 46.127669 -5.534486 2.837691 -21.699111 2.893599 -0.226975 0.000000 0.000000 0.000000 17.704390 -1.306101 1.165688 -0.011004 -0.819674 -1.426642 10.179695 1.532156 -7.156753 3.698953 -1.273152 1.458612 0.000000 0.000000 0.000000 3.134949 -1.166232 1.213234 -3.971754 0.525721 0.035138 0.000000 0.000000 0.000000 3.378152 -1.089431 1.197298 -1.676082 0.871116 14.279772 -42.774302 -3.053696 -26.805916 176.553273 -69.354663 178.568179 0.000000 0.000000 0.000000 3.558546 -0.962607 1.195551 -2.639913 -10.250645 -14.078202 -54.253736 -5.801365 42.965103 178.519930 79.453384 -179.727248 0.000000 0.000000 0.000000 
5.355651 89.677887 -12.833015 0.000000 0.000000 0.000000 18.207244 -3.926413 -1.031190 -58.410453 12.555739 13.967549 68.215128 -1.102380 0.804602 -1.820848 3.071828 14.223656 0.000000 0.000000 0.000000 17.984853 -2.640912 -1.230835 -28.313781 -3.278241 0.188841 38.922270 -5.161039 1.130185 -20.220490 3.049291 1.370577 0.000000 0.000000 0.000000 17.849685 -3.307248 -0.548851 -0.248502 -1.217022 -0.622077 8.092561 2.342973 -7.670917 3.988837 -0.706930 1.964449 0.000000 0.000000 0.000000 3.594831 -0.487426 1.587679 -4.175158 0.622031 0.297755 0.000000 0.000000 0.000000 4.024803 -0.256696 1.607649 -2.148066 3.669170 4.176391 -28.803847 -1.095182 -32.173572 175.909828 -66.422128 176.963863 0.000000 0.000000 0.000000 3.227659 -0.262640 1.915744 -1.858461 -9.513517 -5.757304 -40.744315 -1.836546 44.547255 178.880974 77.309170 -179.095592 0.000000 0.000000 0.000000 
5.023551 88.085167 -11.798553 0.000000 0.000000 0.000000 17.951125 -5.049300 -2.609392 -56.430565 12.713059 12.469690 59.796134 -2.726126 0.960984 -4.889398 2.970587 12.383030 0.000000 0.000000 0.000000 17.941654 -3.853177 -2.731299 -21.477736 -3.712980 1.685862 36.653964 -5.198563 0.374923 -22.609420 2.094678 -0.106835 0.000000 0.000000 0.000000 17.616497 -4.500653 -2.782295 -0.484931 -1.655063 -0.362105 5.428349 2.787861 -7.119293 4.074491 -0.244434 2.143819 0.000000 0.000000 0.000000 3.714230 0.050002 1.681240 -4.110185 0.679076 0.648536 0.000000 0.000000 0.000000 4.452143 0.430055 1.688286 -2.119222 6.958165 -4.814071 -17.323119 -1.123458 -38.339515 175.350258 -67.555434 175.095287 0.000000 0.000000 0.000000 3.157695 0.269528 2.151570 -1.512601 -9.548058 2.879250 -27.166357 0.068978 43.928584 -179.499352 77.198589 -179.634631 0.000000 0.000000 0.000000 
4.723579 85.897659 -10.955425 0.000000 0.000000 0.000000 16.824059 -5.652438 -3.898540 -57.259422 12.628638 13.546942 58.448517 -4.695702 0.819706 -8.057642 2.481393 10.080240 0.000000 0.000000 0.000000 17.043098 -4.508688 -4.095342 -16.333619 -4.902066 3.207000 38.120379 -6.375784 0.521380 -28.439043 0.284093 -4.359232 0.000000 0.000000 0.000000 17.086606 -5.177072 -4.434749 -1.115585 -1.847974 -0.837432 2.740058 2.793515 -6.010871 3.982712 0.036998 1.996243 0.000000 0.000000 0.000000 3.596182 0.356746 1.410480 -3.807348 0.687509 1.025375 0.000000 0.000000 0.000000 4.583827 0.808795 1.402781 -1.681863 10.217222 -11.072979 -10.156592 -2.552125 -43.764557 175.045864 -71.450452 173.321350 0.000000 0.000000 0.000000 3.358435 0.575046 1.844727 -1.522315 -10.647338 9.400409 -16.776900 -0.993184 43.615911 -176.900615 78.460234 178.532853 0.000000 0.000000 0.000000 
4.574792 83.954895 -10.406712 0.000000 0.000000 0.000000 15.656003 -6.697716 -4.263306 -58.428293 12.269855 15.658714 60.823654 -6.783861 0.734758 -14.398877 0.673168 7.323774 0.000000 0.000000 0.000000 15.979518 -5.823810 -4.741516 -13.323266 -5.709134 4.726163 40.130910 -7.457265 0.961734 -33.190898 -0.908277 -7.589727 0.000000 0.000000 0.000000 16.258213 -5.830540 -4.711712 -1.612457 -1.004820 -1.505841 0.771885 2.343553 -4.993028 3.793615 0.089889 1.627630 0.000000 0.000000 0.000000 3.403772 0.439872 0.967856 -3.300498 0.681609 1.433066 0.000000 0.000000 0.000000 4.407027 0.819866 0.937494 -1.218453 12.789786 -13.597519 -8.007003 -3.806657 -48.664469 175.171731 -75.325471 172.101028 0.000000 0.000000 0.000000 3.664767 0.652704 1.239566 -1.549498 -12.112013 12.854592 -11.820949 -3.314549 46.076026 -175.727913 79.368103 177.056234 0.000000 0.000000 0.000000 
4.736249 83.199867 -10.133343 0.000000 0.000000 0.000000 14.897768 -8.756623 -3.490750 -57.377400 12.250831 17.110787 62.973600 -8.515625 0.857088 -22.307172 -1.563330 4.601444 0.000000 0.000000 0.000000 14.985288 -8.060314 -4.655509 -12.973890 -5.555738 5.516077 40.016883 -7.279914 1.414750 -31.466463 -1.298515 -6.297717 0.000000 0.000000 0.000000 15.166046 -7.026429 -3.784437 -1.693283 -0.279131 -1.968199 -0.031619 1.804040 -4.414267 3.420085 -0.015124 1.256401 0.000000 0.000000 0.000000 3.174940 0.338744 0.585067 -2.694298 0.683343 1.832773 0.000000 0.000000 0.000000 3.906259 0.563137 0.486004 -0.942836 14.304112 -12.769793 -10.865421 -4.307719 -52.897500 176.809187 -77.024767 172.696894 0.000000 0.000000 0.000000 3.838821 0.579819 0.690859 -1.587374 -12.939315 13.177362 -14.082995 -4.580131 50.630485 -177.463478 77.768418 177.425174 0.000000 0.000000 0.000000 
